<svg id="splitsvg" version="1.1" xmlns="http://www.w3.org/2000/svg" xmlns:xlink="http://www.w3.org/1999/xlink" width="1380" height="400"><g id="svgg"><path id="path0" d="M303.000 63.330 C 297.506 66.331,294.860 67.798,292.400 69.205 C 290.970 70.022,288.720 71.285,287.400 72.011 C 283.350 74.238,282.333 74.809,278.400 77.062 C 276.310 78.260,274.260 79.428,273.845 79.658 C 273.430 79.887,272.440 80.442,271.645 80.890 C 270.850 81.338,267.950 82.968,265.200 84.513 C 262.450 86.057,259.660 87.642,259.000 88.034 C 258.340 88.426,256.760 89.305,255.489 89.988 C 254.219 90.670,252.599 91.572,251.889 91.993 C 251.180 92.413,250.150 93.007,249.600 93.313 C 249.050 93.619,247.880 94.284,247.000 94.790 C 246.120 95.297,243.420 96.811,241.000 98.154 C 238.580 99.498,236.240 100.816,235.800 101.083 C 235.360 101.350,234.730 101.701,234.400 101.864 C 233.614 102.250,229.611 104.513,223.800 107.857 C 222.920 108.363,221.340 109.238,220.290 109.801 C 219.239 110.363,216.089 112.139,213.290 113.746 C 210.490 115.354,207.120 117.260,205.800 117.983 C 204.480 118.706,202.860 119.614,202.200 119.999 C 201.540 120.385,200.190 121.145,199.200 121.689 C 194.186 124.439,189.613 127.022,188.000 128.013 C 187.010 128.622,185.300 129.597,184.200 130.181 C 183.100 130.765,181.930 131.413,181.600 131.620 C 181.270 131.828,179.830 132.646,178.400 133.438 C 173.361 136.229,171.388 137.339,170.200 138.049 C 169.540 138.444,168.370 139.078,167.600 139.460 C 166.830 139.841,165.570 140.540,164.800 141.013 C 163.332 141.915,160.774 143.360,157.379 145.206 C 146.921 150.892,146.000 151.622,146.000 154.224 C 146.000 155.951,147.010 157.188,149.200 158.144 C 149.530 158.288,150.520 158.857,151.400 159.410 C 152.280 159.962,153.388 160.580,153.861 160.782 C 154.335 160.985,154.840 161.342,154.985 161.575 C 155.129 161.809,155.582 162.000,155.990 162.000 C 156.399 162.000,156.793 162.137,156.867 162.305 C 156.992 162.591,161.108 165.007,166.600 168.018 C 167.920 168.742,170.620 170.268,172.600 171.411 C 181.261 176.408,181.855 176.526,185.600 173.990 C 186.520 173.368,188.301 172.355,193.275 169.628 C 194.306 169.063,197.366 167.349,200.075 165.820 C 202.784 164.291,205.593 162.731,206.318 162.354 C 207.043 161.976,207.853 161.493,208.118 161.280 C 208.524 160.955,210.177 160.031,213.200 158.442 C 214.194 157.919,215.288 157.301,217.600 155.957 C 219.990 154.567,220.954 154.022,224.600 152.000 C 229.712 149.165,230.639 148.644,231.800 147.960 C 232.460 147.570,234.125 146.669,235.500 145.958 C 236.875 145.246,238.000 144.514,238.000 144.332 C 238.000 144.149,238.174 144.000,238.388 144.000 C 238.710 144.000,248.814 138.443,253.000 135.964 C 253.660 135.573,255.240 134.695,256.511 134.012 C 257.781 133.330,259.401 132.430,260.111 132.013 C 260.820 131.596,262.300 130.772,263.400 130.182 C 264.500 129.593,265.684 128.861,266.031 128.555 C 266.379 128.250,266.768 128.000,266.896 128.000 C 267.024 128.000,268.394 127.283,269.940 126.407 C 273.263 124.524,274.583 123.784,277.800 122.000 C 279.120 121.268,280.740 120.368,281.400 120.000 C 282.060 119.632,283.680 118.736,285.000 118.009 C 286.320 117.282,287.878 116.352,288.462 115.943 C 289.046 115.535,289.644 115.200,289.792 115.200 C 289.940 115.200,291.262 114.505,292.730 113.655 C 295.087 112.291,296.489 111.497,300.400 109.312 C 300.950 109.005,302.300 108.224,303.400 107.577 C 304.500 106.929,305.969 106.117,306.664 105.772 C 309.558 104.333,309.387 105.577,309.515 84.972 C 309.643 64.290,309.633 64.188,307.375 62.907 C 305.440 61.809,305.857 61.768,303.000 63.330 M304.400 151.889 C 303.850 151.992,303.220 152.216,303.000 152.385 C 302.780 152.555,301.520 153.287,300.200 154.012 C 298.880 154.737,297.170 155.686,296.400 156.119 C 295.630 156.553,294.370 157.255,293.600 157.680 C 292.830 158.104,291.480 158.893,290.600 159.433 C 289.720 159.972,288.554 160.602,288.008 160.832 C 287.463 161.062,286.923 161.374,286.808 161.525 C 286.694 161.677,285.790 162.212,284.800 162.715 C 283.810 163.218,282.460 163.941,281.800 164.322 C 280.007 165.356,273.256 169.182,271.200 170.328 C 270.210 170.880,268.770 171.692,268.000 172.133 C 267.230 172.574,265.790 173.373,264.800 173.908 C 262.657 175.068,255.389 179.228,252.673 180.850 C 251.614 181.482,250.655 182.000,250.543 182.000 C 250.431 182.000,249.138 182.700,247.670 183.556 C 246.201 184.411,244.190 185.562,243.200 186.112 C 242.210 186.662,240.410 187.673,239.200 188.357 C 237.990 189.041,234.735 190.863,231.966 192.404 C 225.946 195.757,224.999 196.639,225.056 198.837 C 225.096 200.332,226.058 202.000,226.881 202.000 C 227.078 202.000,228.223 202.630,229.427 203.400 C 230.631 204.170,231.709 204.800,231.824 204.800 C 231.939 204.800,234.590 206.270,237.716 208.068 C 240.842 209.865,244.390 211.869,245.600 212.522 C 246.810 213.175,248.790 214.290,250.000 215.000 C 251.210 215.710,253.402 216.941,254.872 217.737 C 256.341 218.532,259.891 220.537,262.759 222.191 C 265.628 223.846,268.074 225.200,268.195 225.200 C 268.317 225.200,269.144 225.660,270.034 226.221 C 271.629 227.228,272.038 227.465,276.400 229.895 C 277.610 230.570,279.742 231.769,281.138 232.561 C 282.535 233.352,283.753 234.000,283.846 234.000 C 283.940 234.000,284.687 234.423,285.508 234.941 C 286.329 235.458,288.080 236.459,289.400 237.166 C 290.720 237.873,292.520 238.893,293.400 239.433 C 294.280 239.972,295.388 240.580,295.861 240.782 C 296.335 240.985,296.840 241.342,296.985 241.575 C 297.129 241.809,297.575 242.000,297.975 242.000 C 298.375 242.000,298.896 242.234,299.134 242.521 C 299.372 242.807,300.913 243.716,302.560 244.541 L 305.553 246.040 307.119 245.241 C 309.751 243.899,309.622 246.452,309.506 197.911 C 309.401 154.217,309.389 153.612,308.600 152.850 C 307.722 152.002,305.954 151.598,304.400 151.889 M100.000 177.969 C 98.815 178.222,95.885 179.706,93.600 181.210 C 93.270 181.427,92.730 181.730,92.400 181.882 C 92.070 182.034,90.596 182.840,89.124 183.673 C 85.922 185.484,84.572 186.241,81.400 188.001 C 80.080 188.734,76.750 190.614,74.000 192.180 C 71.250 193.746,68.470 195.291,67.821 195.614 C 63.124 197.951,62.911 201.572,67.328 203.984 C 68.169 204.443,71.139 206.134,73.928 207.743 C 76.718 209.351,80.080 211.266,81.400 211.999 C 84.572 213.759,85.922 214.516,89.124 216.327 C 90.596 217.160,92.070 217.969,92.400 218.124 C 92.730 218.280,93.558 218.747,94.240 219.162 C 94.922 219.577,96.722 220.585,98.240 221.401 C 99.758 222.217,101.180 223.026,101.400 223.198 C 101.620 223.370,103.240 224.312,105.000 225.290 C 106.760 226.268,108.830 227.429,109.600 227.869 C 110.370 228.309,112.080 229.268,113.400 230.000 C 114.720 230.732,116.340 231.632,117.000 232.000 C 117.660 232.368,119.190 233.219,120.400 233.892 C 121.610 234.564,125.283 236.664,128.562 238.557 C 131.842 240.451,134.605 242.000,134.702 242.000 C 134.800 242.000,136.526 242.963,138.540 244.139 C 140.553 245.315,143.190 246.815,144.400 247.471 C 147.591 249.201,156.544 254.247,159.800 256.151 C 162.814 257.912,162.983 258.008,166.600 259.958 C 167.920 260.670,169.540 261.571,170.200 261.961 C 170.860 262.350,172.390 263.220,173.600 263.895 C 174.810 264.570,176.942 265.769,178.338 266.561 C 179.735 267.352,180.958 268.000,181.058 268.000 C 181.157 268.000,182.223 268.630,183.427 269.400 C 184.631 270.170,185.708 270.800,185.820 270.800 C 185.933 270.800,188.315 272.120,191.113 273.733 C 195.897 276.492,198.536 277.979,202.800 280.319 C 203.790 280.863,204.780 281.436,205.000 281.593 C 205.220 281.750,206.750 282.604,208.400 283.489 C 210.050 284.375,212.300 285.652,213.400 286.326 C 214.500 287.001,216.210 287.967,217.200 288.473 C 218.190 288.979,219.936 289.979,221.081 290.696 C 222.225 291.413,223.266 292.000,223.393 292.000 C 223.521 292.000,225.966 293.350,228.826 295.000 C 231.687 296.650,234.114 298.000,234.221 298.000 C 234.328 298.000,235.154 298.466,236.056 299.035 C 236.958 299.604,239.037 300.777,240.677 301.640 C 242.316 302.504,244.317 303.658,245.122 304.205 C 245.927 304.752,246.728 305.200,246.901 305.200 C 247.074 305.200,247.944 305.660,248.834 306.221 C 250.469 307.253,251.060 307.594,255.400 310.000 C 256.720 310.732,258.340 311.632,259.000 312.000 C 259.660 312.368,261.190 313.221,262.400 313.895 C 263.610 314.570,265.680 315.733,267.000 316.481 C 268.320 317.229,269.670 317.968,270.000 318.123 C 270.330 318.278,271.320 318.857,272.200 319.410 C 273.080 319.962,274.246 320.602,274.792 320.832 C 275.337 321.062,275.877 321.374,275.992 321.525 C 276.106 321.676,276.920 322.152,277.800 322.583 C 278.680 323.014,279.850 323.664,280.400 324.027 C 280.950 324.390,282.480 325.282,283.800 326.009 C 286.828 327.677,288.259 328.478,292.000 330.600 C 294.905 332.248,296.603 333.184,302.675 336.481 L 305.549 338.042 307.130 337.235 C 309.601 335.975,309.600 335.978,309.598 315.440 C 309.595 291.675,310.146 293.367,300.685 288.090 C 292.765 283.673,291.174 282.773,289.800 281.937 C 289.140 281.535,288.340 281.083,288.023 280.931 C 287.706 280.779,284.736 279.126,281.423 277.257 C 278.110 275.389,274.427 273.350,273.237 272.726 C 272.047 272.103,270.877 271.436,270.637 271.243 C 270.397 271.051,269.300 270.413,268.200 269.825 C 266.106 268.707,265.917 268.597,262.502 266.500 C 261.337 265.785,260.301 265.200,260.198 265.200 C 260.018 265.200,250.054 259.648,244.800 256.620 C 243.370 255.796,241.210 254.570,240.000 253.895 C 238.790 253.221,237.170 252.315,236.400 251.882 C 230.378 248.494,226.101 246.115,225.598 245.872 C 225.269 245.713,223.920 244.950,222.600 244.176 C 221.280 243.403,219.750 242.555,219.200 242.293 C 218.650 242.031,218.110 241.713,218.000 241.588 C 217.793 241.351,214.628 239.548,210.800 237.487 C 209.590 236.835,208.240 236.082,207.800 235.813 C 207.360 235.544,205.920 234.727,204.600 233.996 C 203.280 233.266,201.660 232.346,201.000 231.951 C 200.340 231.556,199.170 230.917,198.400 230.531 C 197.630 230.144,195.650 229.031,194.000 228.058 C 192.350 227.085,189.830 225.647,188.400 224.863 C 186.970 224.079,184.964 222.979,183.941 222.419 C 182.919 221.858,181.029 220.787,179.741 220.039 C 177.226 218.576,176.320 218.063,172.600 215.998 C 171.280 215.266,168.066 213.436,165.457 211.933 C 162.849 210.430,160.634 209.200,160.535 209.200 C 160.436 209.200,158.701 208.229,156.678 207.043 C 152.491 204.587,150.488 203.441,148.200 202.193 C 147.320 201.713,144.529 200.159,141.998 198.740 C 139.466 197.321,137.126 196.033,136.798 195.877 C 136.469 195.721,135.660 195.260,135.000 194.853 C 133.427 193.883,131.119 192.572,128.400 191.103 C 127.190 190.450,126.020 189.778,125.800 189.610 C 125.580 189.443,124.320 188.713,123.000 187.988 C 121.680 187.263,120.004 186.336,119.276 185.928 C 118.548 185.520,116.658 184.469,115.076 183.592 C 113.494 182.714,111.930 181.822,111.600 181.609 C 111.270 181.396,110.370 180.913,109.600 180.534 C 108.830 180.156,107.564 179.453,106.786 178.973 C 105.185 177.983,102.080 177.523,100.000 177.969  M -25 0 L -5 0 L -5 20 L -25 20 Z M 405 0 L 425 0 L 425 20 L 405 20 Z" stroke="none" fill="#fafafa" fill-rule="evenodd" transform="translate(30,0)"></path><path id="path1" d="M0.000 200.000 L 0.000 400.000 200.000 400.000 L 400.000 400.000 400.000 200.000 L 400.000 0.000 200.000 0.000 L 0.000 0.000 0.000 200.000 M307.375 62.907 C 309.633 64.188,309.643 64.290,309.515 84.972 C 309.387 105.577,309.558 104.333,306.664 105.772 C 305.969 106.117,304.500 106.929,303.400 107.577 C 302.300 108.224,300.950 109.005,300.400 109.312 C 296.489 111.497,295.087 112.291,292.730 113.655 C 291.262 114.505,289.940 115.200,289.792 115.200 C 289.644 115.200,289.046 115.535,288.462 115.943 C 287.878 116.352,286.320 117.282,285.000 118.009 C 283.680 118.736,282.060 119.632,281.400 120.000 C 280.740 120.368,279.120 121.268,277.800 122.000 C 274.583 123.784,273.263 124.524,269.940 126.407 C 268.394 127.283,267.024 128.000,266.896 128.000 C 266.768 128.000,266.379 128.250,266.031 128.555 C 265.684 128.861,264.500 129.593,263.400 130.182 C 262.300 130.772,260.820 131.596,260.111 132.013 C 259.401 132.430,257.781 133.330,256.511 134.012 C 255.240 134.695,253.660 135.573,253.000 135.964 C 248.814 138.443,238.710 144.000,238.388 144.000 C 238.174 144.000,238.000 144.149,238.000 144.332 C 238.000 144.514,236.875 145.246,235.500 145.958 C 234.125 146.669,232.460 147.570,231.800 147.960 C 230.639 148.644,229.712 149.165,224.600 152.000 C 220.954 154.022,219.990 154.567,217.600 155.957 C 215.288 157.301,214.194 157.919,213.200 158.442 C 210.177 160.031,208.524 160.955,208.118 161.280 C 207.853 161.493,207.043 161.976,206.318 162.354 C 205.593 162.731,202.784 164.291,200.075 165.820 C 197.366 167.349,194.306 169.063,193.275 169.628 C 188.301 172.355,186.520 173.368,185.600 173.990 C 181.855 176.526,181.261 176.408,172.600 171.411 C 170.620 170.268,167.920 168.742,166.600 168.018 C 161.108 165.007,156.992 162.591,156.867 162.305 C 156.793 162.137,156.399 162.000,155.990 162.000 C 155.582 162.000,155.129 161.809,154.985 161.575 C 154.840 161.342,154.335 160.985,153.861 160.782 C 153.388 160.580,152.280 159.962,151.400 159.410 C 150.520 158.857,149.530 158.288,149.200 158.144 C 147.010 157.188,146.000 155.951,146.000 154.224 C 146.000 151.622,146.921 150.892,157.379 145.206 C 160.774 143.360,163.332 141.915,164.800 141.013 C 165.570 140.540,166.830 139.841,167.600 139.460 C 168.370 139.078,169.540 138.444,170.200 138.049 C 171.388 137.339,173.361 136.229,178.400 133.438 C 179.830 132.646,181.270 131.828,181.600 131.620 C 181.930 131.413,183.100 130.765,184.200 130.181 C 185.300 129.597,187.010 128.622,188.000 128.013 C 189.613 127.022,194.186 124.439,199.200 121.689 C 200.190 121.145,201.540 120.385,202.200 119.999 C 202.860 119.614,204.480 118.706,205.800 117.983 C 207.120 117.260,210.490 115.354,213.290 113.746 C 216.089 112.139,219.239 110.363,220.290 109.801 C 221.340 109.238,222.920 108.363,223.800 107.857 C 229.611 104.513,233.614 102.250,234.400 101.864 C 234.730 101.701,235.360 101.350,235.800 101.083 C 236.240 100.816,238.580 99.498,241.000 98.154 C 243.420 96.811,246.120 95.297,247.000 94.790 C 247.880 94.284,249.050 93.619,249.600 93.313 C 250.150 93.007,251.180 92.413,251.889 91.993 C 252.599 91.572,254.219 90.670,255.489 89.988 C 256.760 89.305,258.340 88.426,259.000 88.034 C 259.660 87.642,262.450 86.057,265.200 84.513 C 267.950 82.968,270.850 81.338,271.645 80.890 C 272.440 80.442,273.430 79.887,273.845 79.658 C 274.260 79.428,276.310 78.260,278.400 77.062 C 282.333 74.809,283.350 74.238,287.400 72.011 C 288.720 71.285,290.970 70.022,292.400 69.205 C 294.860 67.798,297.506 66.331,303.000 63.330 C 305.857 61.768,305.440 61.809,307.375 62.907 M308.600 152.850 C 309.389 153.612,309.401 154.217,309.506 197.911 C 309.622 246.452,309.751 243.899,307.119 245.241 L 305.553 246.040 302.560 244.541 C 300.913 243.716,299.372 242.807,299.134 242.521 C 298.896 242.234,298.375 242.000,297.975 242.000 C 297.575 242.000,297.129 241.809,296.985 241.575 C 296.840 241.342,296.335 240.985,295.861 240.782 C 295.388 240.580,294.280 239.972,293.400 239.433 C 292.520 238.893,290.720 237.873,289.400 237.166 C 288.080 236.459,286.329 235.458,285.508 234.941 C 284.687 234.423,283.940 234.000,283.846 234.000 C 283.753 234.000,282.535 233.352,281.138 232.561 C 279.742 231.769,277.610 230.570,276.400 229.895 C 272.038 227.465,271.629 227.228,270.034 226.221 C 269.144 225.660,268.317 225.200,268.195 225.200 C 268.074 225.200,265.628 223.846,262.759 222.191 C 259.891 220.537,256.341 218.532,254.872 217.737 C 253.402 216.941,251.210 215.710,250.000 215.000 C 248.790 214.290,246.810 213.175,245.600 212.522 C 244.390 211.869,240.842 209.865,237.716 208.068 C 234.590 206.270,231.939 204.800,231.824 204.800 C 231.709 204.800,230.631 204.170,229.427 203.400 C 228.223 202.630,227.078 202.000,226.881 202.000 C 226.058 202.000,225.096 200.332,225.056 198.837 C 224.999 196.639,225.946 195.757,231.966 192.404 C 234.735 190.863,237.990 189.041,239.200 188.357 C 240.410 187.673,242.210 186.662,243.200 186.112 C 244.190 185.562,246.201 184.411,247.670 183.556 C 249.138 182.700,250.431 182.000,250.543 182.000 C 250.655 182.000,251.614 181.482,252.673 180.850 C 255.389 179.228,262.657 175.068,264.800 173.908 C 265.790 173.373,267.230 172.574,268.000 172.133 C 268.770 171.692,270.210 170.880,271.200 170.328 C 273.256 169.182,280.007 165.356,281.800 164.322 C 282.460 163.941,283.810 163.218,284.800 162.715 C 285.790 162.212,286.694 161.677,286.808 161.525 C 286.923 161.374,287.463 161.062,288.008 160.832 C 288.554 160.602,289.720 159.972,290.600 159.433 C 291.480 158.893,292.830 158.104,293.600 157.680 C 294.370 157.255,295.630 156.553,296.400 156.119 C 297.170 155.686,298.880 154.737,300.200 154.012 C 301.520 153.287,302.780 152.555,303.000 152.385 C 304.241 151.428,307.398 151.690,308.600 152.850 M106.786 178.973 C 107.564 179.453,108.830 180.156,109.600 180.534 C 110.370 180.913,111.270 181.396,111.600 181.609 C 111.930 181.822,113.494 182.714,115.076 183.592 C 116.658 184.469,118.548 185.520,119.276 185.928 C 120.004 186.336,121.680 187.263,123.000 187.988 C 124.320 188.713,125.580 189.443,125.800 189.610 C 126.020 189.778,127.190 190.450,128.400 191.103 C 131.119 192.572,133.427 193.883,135.000 194.853 C 135.660 195.260,136.469 195.721,136.798 195.877 C 137.126 196.033,139.466 197.321,141.998 198.740 C 144.529 200.159,147.320 201.713,148.200 202.193 C 150.488 203.441,152.491 204.587,156.678 207.043 C 158.701 208.229,160.436 209.200,160.535 209.200 C 160.634 209.200,162.849 210.430,165.457 211.933 C 168.066 213.436,171.280 215.266,172.600 215.998 C 176.320 218.063,177.226 218.576,179.741 220.039 C 181.029 220.787,182.919 221.858,183.941 222.419 C 184.964 222.979,186.970 224.079,188.400 224.863 C 189.830 225.647,192.350 227.085,194.000 228.058 C 195.650 229.031,197.630 230.144,198.400 230.531 C 199.170 230.917,200.340 231.556,201.000 231.951 C 201.660 232.346,203.280 233.266,204.600 233.996 C 205.920 234.727,207.360 235.544,207.800 235.813 C 208.240 236.082,209.590 236.835,210.800 237.487 C 214.628 239.548,217.793 241.351,218.000 241.588 C 218.110 241.713,218.650 242.031,219.200 242.293 C 219.750 242.555,221.280 243.403,222.600 244.176 C 223.920 244.950,225.269 245.713,225.598 245.872 C 226.101 246.115,230.378 248.494,236.400 251.882 C 237.170 252.315,238.790 253.221,240.000 253.895 C 241.210 254.570,243.370 255.796,244.800 256.620 C 250.054 259.648,260.018 265.200,260.198 265.200 C 260.301 265.200,261.337 265.785,262.502 266.500 C 265.917 268.597,266.106 268.707,268.200 269.825 C 269.300 270.413,270.397 271.051,270.637 271.243 C 270.877 271.436,272.047 272.103,273.237 272.726 C 274.427 273.350,278.110 275.389,281.423 277.257 C 284.736 279.126,287.706 280.779,288.023 280.931 C 288.340 281.083,289.140 281.535,289.800 281.937 C 291.174 282.773,292.765 283.673,300.685 288.090 C 310.146 293.367,309.595 291.675,309.598 315.440 C 309.600 335.978,309.601 335.975,307.130 337.235 L 305.549 338.042 302.675 336.481 C 296.603 333.184,294.905 332.248,292.000 330.600 C 288.259 328.478,286.828 327.677,283.800 326.009 C 282.480 325.282,280.950 324.390,280.400 324.027 C 279.850 323.664,278.680 323.014,277.800 322.583 C 276.920 322.152,276.106 321.676,275.992 321.525 C 275.877 321.374,275.337 321.062,274.792 320.832 C 274.246 320.602,273.080 319.962,272.200 319.410 C 271.320 318.857,270.330 318.278,270.000 318.123 C 269.670 317.968,268.320 317.229,267.000 316.481 C 265.680 315.733,263.610 314.570,262.400 313.895 C 261.190 313.221,259.660 312.368,259.000 312.000 C 258.340 311.632,256.720 310.732,255.400 310.000 C 251.060 307.594,250.469 307.253,248.834 306.221 C 247.944 305.660,247.074 305.200,246.901 305.200 C 246.728 305.200,245.927 304.752,245.122 304.205 C 244.317 303.658,242.316 302.504,240.677 301.640 C 239.037 300.777,236.958 299.604,236.056 299.035 C 235.154 298.466,234.328 298.000,234.221 298.000 C 234.114 298.000,231.687 296.650,228.826 295.000 C 225.966 293.350,223.521 292.000,223.393 292.000 C 223.266 292.000,222.225 291.413,221.081 290.696 C 219.936 289.979,218.190 288.979,217.200 288.473 C 216.210 287.967,214.500 287.001,213.400 286.326 C 212.300 285.652,210.050 284.375,208.400 283.489 C 206.750 282.604,205.220 281.750,205.000 281.593 C 204.780 281.436,203.790 280.863,202.800 280.319 C 198.536 277.979,195.897 276.492,191.113 273.733 C 188.315 272.120,185.933 270.800,185.820 270.800 C 185.708 270.800,184.631 270.170,183.427 269.400 C 182.223 268.630,181.157 268.000,181.058 268.000 C 180.958 268.000,179.735 267.352,178.338 266.561 C 176.942 265.769,174.810 264.570,173.600 263.895 C 172.390 263.220,170.860 262.350,170.200 261.961 C 169.540 261.571,167.920 260.670,166.600 259.958 C 162.983 258.008,162.814 257.912,159.800 256.151 C 156.544 254.247,147.591 249.201,144.400 247.471 C 143.190 246.815,140.553 245.315,138.540 244.139 C 136.526 242.963,134.800 242.000,134.702 242.000 C 134.605 242.000,131.842 240.451,128.562 238.557 C 125.283 236.664,121.610 234.564,120.400 233.892 C 119.190 233.219,117.660 232.368,117.000 232.000 C 116.340 231.632,114.720 230.732,113.400 230.000 C 112.080 229.268,110.370 228.309,109.600 227.869 C 108.830 227.429,106.760 226.268,105.000 225.290 C 103.240 224.312,101.620 223.370,101.400 223.198 C 101.180 223.026,99.758 222.217,98.240 221.401 C 96.722 220.585,94.922 219.577,94.240 219.162 C 93.558 218.747,92.730 218.280,92.400 218.124 C 92.070 217.969,90.596 217.160,89.124 216.327 C 85.922 214.516,84.572 213.759,81.400 211.999 C 80.080 211.266,76.718 209.351,73.928 207.743 C 71.139 206.134,68.169 204.443,67.328 203.984 C 62.911 201.572,63.124 197.951,67.821 195.614 C 68.470 195.291,71.250 193.746,74.000 192.180 C 76.750 190.614,80.080 188.734,81.400 188.001 C 84.572 186.241,85.922 185.484,89.124 183.673 C 90.596 182.840,92.070 182.034,92.400 181.882 C 92.730 181.730,93.270 181.427,93.600 181.210 C 99.236 177.500,103.291 176.812,106.786 178.973  M -25 0 L -5 0 L -5 20 L -25 20 Z M 405 0 L 425 0 L 425 20 L 405 20 Z" stroke="none" fill="#040404" fill-rule="evenodd" transform="translate(490,0)"></path></g></svg>